<svg width="128" height="128" viewBox="0 0 128 128" fill="none" xmlns="http://www.w3.org/2000/svg">
  <defs>
    <linearGradient id="grad" x1="0" y1="0" x2="1" y2="1">
      <stop offset="0%" stop-color="#3B82F6" />
      <stop offset="100%" stop-color="#A855F7" />
    </linearGradient>
  </defs>
  <rect width="128" height="128" rx="32" fill="#0F172A" />
  <path d="M39.5 42C44.4706 39.1615 50.0005 38 55.4422 38C64.9515 38 72.3608 42.4964 76.1031 48.8512C78.7282 52.9986 79.5 57.8559 79.5 63.0789V81.2651C79.5 82.2248 78.7603 82.9645 77.8007 82.9645C76.841 82.9645 76.1013 82.2248 76.1013 81.2651V63.1003C76.1013 58.5462 74.8314 54.2508 71.7973 50.7285C68.6253 47.1107 64.003 45 58.398 45C52.218 45 47.129 48.7463 44.9787 53.5963C44.2006 55.2855 43.7684 57.1426 43.668 59.0836C43.5824 60.6504 44.5172 62.0408 46.0703 62.5785L62.3787 68.3342C67.1578 70.3916 71.5 75.2826 71.5 83.0918C71.5 88.272 67.172 92.6 61.9918 92.6C57.253 92.6 53.2987 89.2863 51.4057 84.4671C50.9474 83.403 50.1549 82.4761 49.1399 81.8411L43.8445 78.1151C42.6293 77.1761 41.5 78.1712 41.5 79.6119V88.6951C41.5 89.6548 40.7603 90.3945 39.8007 90.3945C38.841 90.3945 38.1013 89.6548 38.1013 88.6951V79.6119C38.1013 76.7442 39.2008 74.0851 41.0156 71.9054L46.311 68.1869C47.9218 66.974 49.5 65.5266 49.5 63.0789C49.5 58.6985 46.018 55.2 41.6376 55.2C38.3091 55.2 35.592 57.5998 34.7736 60.7941C34.2622 62.7523 34.4194 64.8578 35.2214 66.6849L42.705 82.2871C43.5301 84.1471 42.5314 85.922 40.5814 86.4845L33.3153 88.9287C31.3768 89.4851 29.5715 88.3097 29.1553 86.3542C24.6967 66.7937 27.5984 52.1531 39.5 42Z" fill="url(#grad)"/>
  <path d="M72.5 45C77.4706 42.1615 83.0005 41 88.4422 41C97.9515 41 105.361 45.4964 109.103 51.8512C111.728 55.9986 112.5 60.8559 112.5 66.0789V84.2651C112.5 85.2248 111.76 85.9645 110.801 85.9645C109.841 85.9645 109.101 85.2248 109.101 84.2651V66.1003C109.101 61.5462 107.831 57.2508 104.797 53.7285C101.625 50.1107 97.003 48 91.398 48C85.218 48 80.129 51.7463 77.979 56.5963C77.201 58.2855 76.769 60.1426 76.668 62.0836C76.5824 63.6504 77.5172 65.0408 79.0703 65.5785L95.379 71.3342C100.158 73.3916 104.5 78.2826 104.5 86.0918C104.5 91.272 100.172 95.6 94.992 95.6C90.253 95.6 86.2987 92.2863 84.406 87.4671C83.9477 86.403 83.1552 85.4761 82.1402 84.8411L76.8448 81.1151C75.6296 80.1761 74.5 81.1712 74.5 82.6119V91.6951C74.5 92.6548 73.7603 93.3945 72.8007 93.3945C71.841 93.3945 71.1013 92.6548 71.1013 91.6951V82.6119C71.1013 79.7442 72.2008 77.0851 74.0156 74.9054L79.311 71.1869C80.9218 69.974 82.5 68.5266 82.5 66.0789C82.5 61.6985 79.018 58.2 74.6376 58.2C71.3091 58.2 68.592 60.5998 67.7736 63.7941C67.2622 65.7523 67.4194 67.8578 68.2214 69.6849L75.705 85.2871C76.5301 87.1471 75.5314 88.922 73.5814 89.4845L66.3153 91.9287C64.3768 92.4851 62.5715 91.3097 62.1553 89.3542C57.6967 69.7937 60.5984 55.1531 72.5 45Z" fill="#EDE9FE"/>
</svg>
